{
  "accessors": [
    {
      "bufferView": 2,
      "componentType": 5126,
      "count": 1549,
      "max": [
        359.2965087890625,
        3419.49169921875,
        92.66252136230469
      ],
      "min": [
        -359.79986572265625,
        1.5623092651367188,
        -92.66252136230469
      ],
      "type": "VEC3"
    },
    {
      "bufferView": 2,
      "byteOffset": 18588,
      "componentType": 5126,
      "count": 1549,
      "max": [
        1.0,
        1.0,
        1.0
      ],
      "min": [
        -1.0,
        -1.0,
        -1.0
      ],
      "type": "VEC3"
    },
    {
      "bufferView": 1,
      "componentType": 5126,
      "count": 1549,
      "max": [
        0.9313833713531494,
        0.984442949295044
      ],
      "min": [
        0.11042407155036926,
        0.07471241801977158
      ],
      "type": "VEC2"
    },
    {
      "bufferView": 1,
      "byteOffset": 12392,
      "componentType": 5126,
      "count": 1549,
      "max": [
        0.31966590881347656,
        0.975958526134491
      ],
      "min": [
        0.0,
        0.0
      ],
      "type": "VEC2"
    },
    {
      "bufferView": 1,
      "byteOffset": 24784,
      "componentType": 5126,
      "count": 1549,
      "max": [
        0.0,
        0.0
      ],
      "min": [
        0.0,
        0.0
      ],
      "type": "VEC2"
    },
    {
      "bufferView": 1,
      "byteOffset": 37176,
      "componentType": 5126,
      "count": 1549,
      "max": [
        0.0,
        0.0
      ],
      "min": [
        0.0,
        0.0
      ],
      "type": "VEC2"
    },
    {
      "bufferView": 1,
      "byteOffset": 49568,
      "componentType": 5126,
      "count": 1549,
      "max": [
        0.0,
        0.0
      ],
      "min": [
        0.0,
        0.0
      ],
      "type": "VEC2"
    },
    {
      "bufferView": 1,
      "byteOffset": 61960,
      "componentType": 5126,
      "count": 1549,
      "max": [
        0.0,
        0.0
      ],
      "min": [
        0.0,
        0.0
      ],
      "type": "VEC2"
    },
    {
      "bufferView": 1,
      "byteOffset": 74352,
      "componentType": 5126,
      "count": 1549,
      "max": [
        0.0,
        0.0
      ],
      "min": [
        0.0,
        0.0
      ],
      "type": "VEC2"
    },
    {
      "bufferView": 0,
      "componentType": 5125,
      "count": 2652,
      "type": "SCALAR"
    },
    {
      "bufferView": 2,
      "byteOffset": 37176,
      "componentType": 5126,
      "count": 1498,
      "max": [
        241.2949981689453,
        2221.467041015625,
        123.0356216430664
      ],
      "min": [
        -241.79835510253906,
        41.192626953125,
        -123.0356216430664
      ],
      "type": "VEC3"
    },
    {
      "bufferView": 2,
      "byteOffset": 55152,
      "componentType": 5126,
      "count": 1498,
      "max": [
        1.0,
        1.0,
        1.0
      ],
      "min": [
        -1.0,
        -0.9903165102005005,
        -1.0
      ],
      "type": "VEC3"
    },
    {
      "bufferView": 1,
      "byteOffset": 86744,
      "componentType": 5126,
      "count": 1498,
      "max": [
        0.47718051075935364,
        0.9479914903640747
      ],
      "min": [
        0.16460534930229187,
        0.05970102548599243
      ],
      "type": "VEC2"
    },
    {
      "bufferView": 1,
      "byteOffset": 98728,
      "componentType": 5126,
      "count": 1498,
      "max": [
        0.9488639831542969,
        0.9436043500900269
      ],
      "min": [
        0.0,
        0.0
      ],
      "type": "VEC2"
    },
    {
      "bufferView": 1,
      "byteOffset": 110712,
      "componentType": 5126,
      "count": 1498,
      "max": [
        0.0,
        0.0
      ],
      "min": [
        0.0,
        0.0
      ],
      "type": "VEC2"
    },
    {
      "bufferView": 1,
      "byteOffset": 122696,
      "componentType": 5126,
      "count": 1498,
      "max": [
        0.0,
        0.0
      ],
      "min": [
        0.0,
        0.0
      ],
      "type": "VEC2"
    },
    {
      "bufferView": 1,
      "byteOffset": 134680,
      "componentType": 5126,
      "count": 1498,
      "max": [
        0.0,
        0.0
      ],
      "min": [
        0.0,
        0.0
      ],
      "type": "VEC2"
    },
    {
      "bufferView": 1,
      "byteOffset": 146664,
      "componentType": 5126,
      "count": 1498,
      "max": [
        0.0,
        0.0
      ],
      "min": [
        0.0,
        0.0
      ],
      "type": "VEC2"
    },
    {
      "bufferView": 1,
      "byteOffset": 158648,
      "componentType": 5126,
      "count": 1498,
      "max": [
        0.0,
        0.0
      ],
      "min": [
        0.0,
        0.0
      ],
      "type": "VEC2"
    },
    {
      "bufferView": 0,
      "byteOffset": 10608,
      "componentType": 5125,
      "count": 2664,
      "type": "SCALAR"
    },
    {
      "bufferView": 2,
      "byteOffset": 73128,
      "componentType": 5126,
      "count": 1200,
      "max": [
        234.86099243164063,
        2158.06103515625,
        62.94609832763672
      ],
      "min": [
        -235.1389923095703,
        335.51788330078125,
        -62.94609832763672
      ],
      "type": "VEC3"
    },
    {
      "bufferView": 2,
      "byteOffset": 87528,
      "componentType": 5126,
      "count": 1200,
      "max": [
        1.0,
        1.0,
        1.0
      ],
      "min": [
        -1.0,
        -1.0,
        -1.0
      ],
      "type": "VEC3"
    },
    {
      "bufferView": 1,
      "byteOffset": 170632,
      "componentType": 5126,
      "count": 1200,
      "max": [
        0.0,
        0.0
      ],
      "min": [
        0.0,
        0.0
      ],
      "type": "VEC2"
    },
    {
      "bufferView": 1,
      "byteOffset": 180232,
      "componentType": 5126,
      "count": 1200,
      "max": [
        0.0,
        0.0
      ],
      "min": [
        0.0,
        0.0
      ],
      "type": "VEC2"
    },
    {
      "bufferView": 1,
      "byteOffset": 189832,
      "componentType": 5126,
      "count": 1200,
      "max": [
        0.21276509761810303,
        0.22479858994483948
      ],
      "min": [
        0.07687798142433167,
        0.08891157060861588
      ],
      "type": "VEC2"
    },
    {
      "bufferView": 1,
      "byteOffset": 199432,
      "componentType": 5126,
      "count": 1200,
      "max": [
        0.0,
        0.0
      ],
      "min": [
        0.0,
        0.0
      ],
      "type": "VEC2"
    },
    {
      "bufferView": 1,
      "byteOffset": 209032,
      "componentType": 5126,
      "count": 1200,
      "max": [
        0.0,
        0.0
      ],
      "min": [
        0.0,
        0.0
      ],
      "type": "VEC2"
    },
    {
      "bufferView": 1,
      "byteOffset": 218632,
      "componentType": 5126,
      "count": 1200,
      "max": [
        0.0,
        0.0
      ],
      "min": [
        0.0,
        0.0
      ],
      "type": "VEC2"
    },
    {
      "bufferView": 1,
      "byteOffset": 228232,
      "componentType": 5126,
      "count": 1200,
      "max": [
        0.0,
        0.0
      ],
      "min": [
        0.0,
        0.0
      ],
      "type": "VEC2"
    },
    {
      "bufferView": 0,
      "byteOffset": 21264,
      "componentType": 5125,
      "count": 1788,
      "type": "SCALAR"
    },
    {
      "bufferView": 2,
      "byteOffset": 101928,
      "componentType": 5126,
      "count": 14,
      "max": [
        233.2022705078125,
        2166.8505859375,
        -4.155345439910889
      ],
      "min": [
        -228.34693908691406,
        48.82316589355469,
        -4.1553826332092285
      ],
      "type": "VEC3"
    },
    {
      "bufferView": 2,
      "byteOffset": 102096,
      "componentType": 5126,
      "count": 14,
      "max": [
        0.0,
        -2.030137169484192e-09,
        1.0
      ],
      "min": [
        -1.4286156613252388e-07,
        -5.7369095429749e-07,
        1.0
      ],
      "type": "VEC3"
    },
    {
      "bufferView": 1,
      "byteOffset": 237832,
      "componentType": 5126,
      "count": 14,
      "max": [
        0.25535720586776733,
        0.9567232131958008
      ],
      "min": [
        0.05536222457885742,
        0.06406022608280182
      ],
      "type": "VEC2"
    },
    {
      "bufferView": 1,
      "byteOffset": 237944,
      "componentType": 5126,
      "count": 14,
      "max": [
        0.0,
        0.0
      ],
      "min": [
        0.0,
        0.0
      ],
      "type": "VEC2"
    },
    {
      "bufferView": 1,
      "byteOffset": 238056,
      "componentType": 5126,
      "count": 14,
      "max": [
        0.0,
        0.0
      ],
      "min": [
        0.0,
        0.0
      ],
      "type": "VEC2"
    },
    {
      "bufferView": 1,
      "byteOffset": 238168,
      "componentType": 5126,
      "count": 14,
      "max": [
        0.0,
        0.0
      ],
      "min": [
        0.0,
        0.0
      ],
      "type": "VEC2"
    },
    {
      "bufferView": 1,
      "byteOffset": 238280,
      "componentType": 5126,
      "count": 14,
      "max": [
        0.0,
        0.0
      ],
      "min": [
        0.0,
        0.0
      ],
      "type": "VEC2"
    },
    {
      "bufferView": 1,
      "byteOffset": 238392,
      "componentType": 5126,
      "count": 14,
      "max": [
        0.27136752009391785,
        0.21650388836860657
      ],
      "min": [
        0.021597355604171753,
        0.04995901137590408
      ],
      "type": "VEC2"
    },
    {
      "bufferView": 1,
      "byteOffset": 238504,
      "componentType": 5126,
      "count": 14,
      "max": [
        0.0,
        0.0
      ],
      "min": [
        0.0,
        0.0
      ],
      "type": "VEC2"
    },
    {
      "bufferView": 1,
      "byteOffset": 238616,
      "componentType": 5126,
      "count": 14,
      "max": [
        0.0,
        0.0
      ],
      "min": [
        0.0,
        0.0
      ],
      "type": "VEC2"
    },
    {
      "bufferView": 0,
      "byteOffset": 28416,
      "componentType": 5125,
      "count": 18,
      "type": "SCALAR"
    },
    {
      "bufferView": 2,
      "byteOffset": 102264,
      "componentType": 5126,
      "count": 8,
      "max": [
        183.74761962890625,
        1793.51806640625,
        58.976905822753906
      ],
      "min": [
        -166.61842346191406,
        1443.1519775390625,
        -58.976905822753906
      ],
      "type": "VEC3"
    },
    {
      "bufferView": 2,
      "byteOffset": 102360,
      "componentType": 5126,
      "count": 8,
      "max": [
        0.0,
        1.942209237881798e-08,
        1.0
      ],
      "min": [
        0.0,
        -1.942209237881798e-08,
        -1.0
      ],
      "type": "VEC3"
    },
    {
      "bufferView": 1,
      "byteOffset": 238728,
      "componentType": 5126,
      "count": 8,
      "max": [
        0.46267300844192505,
        0.3248012661933899
      ],
      "min": [
        0.34775322675704956,
        0.2098814845085144
      ],
      "type": "VEC2"
    },
    {
      "bufferView": 1,
      "byteOffset": 238792,
      "componentType": 5126,
      "count": 8,
      "max": [
        0.0,
        0.0
      ],
      "min": [
        0.0,
        0.0
      ],
      "type": "VEC2"
    },
    {
      "bufferView": 1,
      "byteOffset": 238856,
      "componentType": 5126,
      "count": 8,
      "max": [
        0.0,
        0.0
      ],
      "min": [
        0.0,
        0.0
      ],
      "type": "VEC2"
    },
    {
      "bufferView": 1,
      "byteOffset": 238920,
      "componentType": 5126,
      "count": 8,
      "max": [
        0.0,
        0.0
      ],
      "min": [
        0.0,
        0.0
      ],
      "type": "VEC2"
    },
    {
      "bufferView": 1,
      "byteOffset": 238984,
      "componentType": 5126,
      "count": 8,
      "max": [
        0.0,
        0.0
      ],
      "min": [
        0.0,
        0.0
      ],
      "type": "VEC2"
    },
    {
      "bufferView": 1,
      "byteOffset": 239048,
      "componentType": 5126,
      "count": 8,
      "max": [
        0.0,
        0.0
      ],
      "min": [
        0.0,
        0.0
      ],
      "type": "VEC2"
    },
    {
      "bufferView": 1,
      "byteOffset": 239112,
      "componentType": 5126,
      "count": 8,
      "max": [
        0.0,
        0.0
      ],
      "min": [
        0.0,
        0.0
      ],
      "type": "VEC2"
    },
    {
      "bufferView": 1,
      "byteOffset": 239176,
      "componentType": 5126,
      "count": 8,
      "max": [
        0.9376602172851563,
        0.931734561920166
      ],
      "min": [
        0.4188705384731293,
        0.4129449129104614
      ],
      "type": "VEC2"
    },
    {
      "bufferView": 0,
      "byteOffset": 28488,
      "componentType": 5125,
      "count": 12,
      "type": "SCALAR"
    }
  ],
  "asset": {
    "extras": {
      "author": "Kai Tsuki (https://sketchfab.com/righttsuki)",
      "license": "CC-BY-4.0 (http://creativecommons.org/licenses/by/4.0/)",
      "source": "https://sketchfab.com/3d-models/transistor-redbubble-92fc483b18cc4709ba8a8ea7c7213986",
      "title": "Transistor: redbubble"
    },
    "generator": "Sketchfab-12.67.0",
    "version": "2.0"
  },
  "bufferViews": [
    {
      "buffer": 0,
      "byteLength": 28536,
      "name": "floatBufferViews",
      "target": 34963
    },
    {
      "buffer": 0,
      "byteLength": 239240,
      "byteOffset": 28536,
      "byteStride": 8,
      "name": "floatBufferViews",
      "target": 34962
    },
    {
      "buffer": 0,
      "byteLength": 102456,
      "byteOffset": 267776,
      "byteStride": 12,
      "name": "floatBufferViews",
      "target": 34962
    }
  ],
  "buffers": [
    {
      "byteLength": 370232,
      "uri": "scene.bin"
    }
  ],
  "images": [
    {
      "uri": "textures/RedBubbleColor_baseColor.png"
    },
    {
      "uri": "textures/RedBubblealfa_baseColor.png"
    },
    {
      "uri": "textures/RedBubblePlanoEye_baseColor.png"
    }
  ],
  "materials": [
    {
      "doubleSided": true,
      "name": "RedBubbleColor",
      "pbrMetallicRoughness": {
        "baseColorTexture": {
          "index": 0
        },
        "metallicFactor": 0.0,
        "roughnessFactor": 0.6757990867579908
      }
    },
    {
      "alphaMode": "BLEND",
      "doubleSided": true,
      "name": "RedBubblealfa",
      "pbrMetallicRoughness": {
        "baseColorFactor": [
          1.0,
          1.0,
          1.0,
          0.60882800608828
        ],
        "baseColorTexture": {
          "index": 1
        },
        "metallicFactor": 0.0,
        "roughnessFactor": 0.1948249619482496
      }
    },
    {
      "doubleSided": true,
      "emissiveFactor": [
        0.19820109589041082,
        1.0,
        1.0
      ],
      "name": "brillo",
      "pbrMetallicRoughness": {
        "baseColorTexture": {
          "index": 0
        },
        "metallicFactor": 0.0,
        "roughnessFactor": 0.8211145618000169
      }
    },
    {
      "doubleSided": true,
      "emissiveFactor": [
        1.0,
        1.0,
        1.0
      ],
      "emissiveTexture": {
        "index": 0,
        "texCoord": 1
      },
      "name": "RedBubblePlano",
      "pbrMetallicRoughness": {
        "baseColorTexture": {
          "index": 0
        },
        "metallicFactor": 0.0,
        "roughnessFactor": 0.8211145618000169
      }
    },
    {
      "alphaCutoff": 1.0,
      "alphaMode": "MASK",
      "emissiveFactor": [
        1.0,
        1.0,
        1.0
      ],
      "emissiveTexture": {
        "index": 0
      },
      "name": "RedBubblePlanoEye",
      "pbrMetallicRoughness": {
        "baseColorTexture": {
          "index": 2
        },
        "metallicFactor": 0.0,
        "roughnessFactor": 0.8211145618000169
      }
    }
  ],
  "meshes": [
    {
      "name": "RedBubble_RedBubbleColor_0",
      "primitives": [
        {
          "attributes": {
            "NORMAL": 1,
            "POSITION": 0,
            "TEXCOORD_0": 2,
            "TEXCOORD_1": 3,
            "TEXCOORD_2": 4,
            "TEXCOORD_3": 5,
            "TEXCOORD_4": 6,
            "TEXCOORD_5": 7,
            "TEXCOORD_6": 8
          },
          "indices": 9,
          "material": 0,
          "mode": 4
        }
      ]
    },
    {
      "name": "RedBubble_RedBubblealfa_0",
      "primitives": [
        {
          "attributes": {
            "NORMAL": 11,
            "POSITION": 10,
            "TEXCOORD_0": 12,
            "TEXCOORD_1": 13,
            "TEXCOORD_2": 14,
            "TEXCOORD_3": 15,
            "TEXCOORD_4": 16,
            "TEXCOORD_5": 17,
            "TEXCOORD_6": 18
          },
          "indices": 19,
          "material": 1,
          "mode": 4
        }
      ]
    },
    {
      "name": "RedBubble_brillo_0",
      "primitives": [
        {
          "attributes": {
            "NORMAL": 21,
            "POSITION": 20,
            "TEXCOORD_0": 22,
            "TEXCOORD_1": 23,
            "TEXCOORD_2": 24,
            "TEXCOORD_3": 25,
            "TEXCOORD_4": 26,
            "TEXCOORD_5": 27,
            "TEXCOORD_6": 28
          },
          "indices": 29,
          "material": 2,
          "mode": 4
        }
      ]
    },
    {
      "name": "RedBubble_RedBubblePlano_0",
      "primitives": [
        {
          "attributes": {
            "NORMAL": 31,
            "POSITION": 30,
            "TEXCOORD_0": 32,
            "TEXCOORD_1": 33,
            "TEXCOORD_2": 34,
            "TEXCOORD_3": 35,
            "TEXCOORD_4": 36,
            "TEXCOORD_5": 37,
            "TEXCOORD_6": 38,
            "TEXCOORD_7": 39
          },
          "indices": 40,
          "material": 3,
          "mode": 4
        }
      ]
    },
    {
      "name": "RedBubble_RedBubblePlanoEye_0",
      "primitives": [
        {
          "attributes": {
            "NORMAL": 42,
            "POSITION": 41,
            "TEXCOORD_0": 43,
            "TEXCOORD_1": 44,
            "TEXCOORD_2": 45,
            "TEXCOORD_3": 46,
            "TEXCOORD_4": 47,
            "TEXCOORD_5": 48,
            "TEXCOORD_6": 49,
            "TEXCOORD_7": 50
          },
          "indices": 51,
          "material": 4,
          "mode": 4
        }
      ]
    }
  ],
  "nodes": [
    {
      "children": [
        1
      ],
      "matrix": [
        1.0,
        0.0,
        0.0,
        0.0,
        0.0,
        2.220446049250313e-16,
        -1.0,
        0.0,
        0.0,
        1.0,
        2.220446049250313e-16,
        0.0,
        0.0,
        0.0,
        0.0,
        1.0
      ],
      "name": "Sketchfab_model"
    },
    {
      "children": [
        2
      ],
      "matrix": [
        1.0,
        0.0,
        0.0,
        0.0,
        0.0,
        0.0,
        1.0,
        0.0,
        0.0,
        -1.0,
        0.0,
        0.0,
        0.0,
        0.0,
        0.0,
        1.0
      ],
      "name": "1b9c412b45e548daab03d972829d15d9.fbx"
    },
    {
      "children": [
        3
      ],
      "name": "RootNode"
    },
    {
      "children": [
        4,
        5,
        6,
        7,
        8
      ],
      "name": "RedBubble"
    },
    {
      "mesh": 0,
      "name": "RedBubble_RedBubbleColor_0"
    },
    {
      "mesh": 1,
      "name": "RedBubble_RedBubblealfa_0"
    },
    {
      "mesh": 2,
      "name": "RedBubble_brillo_0"
    },
    {
      "mesh": 3,
      "name": "RedBubble_RedBubblePlano_0"
    },
    {
      "mesh": 4,
      "name": "RedBubble_RedBubblePlanoEye_0"
    }
  ],
  "samplers": [
    {
      "magFilter": 9729,
      "minFilter": 9987,
      "wrapS": 10497,
      "wrapT": 10497
    }
  ],
  "scene": 0,
  "scenes": [
    {
      "name": "Sketchfab_Scene",
      "nodes": [
        0
      ]
    }
  ],
  "textures": [
    {
      "sampler": 0,
      "source": 0
    },
    {
      "sampler": 0,
      "source": 1
    },
    {
      "sampler": 0,
      "source": 2
    }
  ]
}
